<?xml version="1.0" standalone="no"?>
<!DOCTYPE svg PUBLIC "-//W3C//DTD SVG 20010904//EN"
 "http://www.w3.org/TR/2001/REC-SVG-20010904/DTD/svg10.dtd">
<svg version="1.0" xmlns="http://www.w3.org/2000/svg"
 width="1920.000000pt" height="800.000000pt" viewBox="0 0 1920.000000 800.000000"
 preserveAspectRatio="xMidYMid meet">

<g transform="translate(0.000000,800.000000) scale(0.100000,-0.100000)"
fill="#000000" stroke="none">
<path d="M10047 5540 c-46 -14 -92 -55 -112 -100 -21 -46 -23 -8 31 -450 43
-357 56 -467 69 -575 8 -66 23 -194 34 -285 11 -91 27 -228 36 -305 9 -77 23
-192 31 -255 27 -223 65 -555 66 -580 1 -14 -9 -45 -22 -70 -12 -24 -28 -60
-35 -79 l-12 -36 -7 45 c-19 115 -98 384 -119 405 -7 7 -8 4 -3 -10 11 -30 76
-245 76 -251 0 -9 -43 18 -81 53 -21 19 -39 31 -39 25 0 -12 72 -73 107 -91
26 -13 44 -110 68 -356 9 -88 22 -202 30 -252 8 -51 15 -98 15 -103 0 -6 -25
16 -56 50 -31 33 -93 88 -138 122 -95 71 -103 81 -158 213 -44 106 -75 162
-102 184 -22 18 -20 -2 2 -22 10 -9 30 -43 45 -74 75 -164 95 -213 84 -207
-104 60 -282 212 -328 279 -25 37 -47 48 -29 15 21 -38 126 -144 200 -199 41
-31 126 -92 188 -135 61 -43 112 -80 112 -82 0 -2 -28 -1 -62 2 -228 20 -290
34 -367 86 -57 38 -65 29 -10 -12 61 -44 153 -68 322 -83 l148 -14 55 -54 c87
-86 103 -116 129 -236 12 -59 28 -126 34 -147 6 -22 9 -41 8 -43 -2 -1 -24 8
-50 21 -48 25 -106 36 -282 56 -65 7 -118 19 -152 35 -29 13 -53 20 -53 16 0
-13 93 -50 152 -61 28 -6 53 -12 55 -14 2 -2 -32 -13 -77 -25 -169 -46 -321
-45 -426 3 -30 14 -54 21 -54 17 0 -13 79 -47 138 -60 104 -22 238 -8 403 42
73 23 92 25 147 17 82 -11 151 -35 184 -63 22 -18 36 -53 73 -182 26 -88 53
-172 61 -186 7 -15 16 -56 20 -92 8 -76 27 -113 78 -152 63 -48 95 -48 366 -4
135 22 283 46 330 54 114 20 496 80 590 94 41 6 172 26 290 45 118 19 235 36
260 38 35 2 46 7 48 22 2 11 15 31 28 45 33 36 45 85 38 159 -4 34 -3 62 2 62
5 0 33 -9 62 -20 42 -16 73 -20 165 -18 l112 2 -125 6 c-87 4 -138 11 -167 24
-24 10 -43 21 -43 25 0 4 12 12 28 19 126 57 155 71 141 72 -8 0 -53 -18 -98
-40 -46 -22 -85 -39 -87 -37 -2 2 -10 52 -19 112 -16 119 -14 129 36 140 16 4
29 10 29 14 0 11 35 26 210 88 142 50 195 72 179 73 -4 0 -49 -16 -100 -35
-52 -19 -95 -35 -96 -35 -2 0 -3 7 -3 16 0 17 56 78 80 86 8 3 12 8 9 12 -9
10 -85 -61 -99 -93 -9 -24 -23 -34 -64 -47 -28 -9 -82 -32 -119 -50 -37 -19
-70 -34 -71 -34 -2 0 -7 7 -10 16 -7 19 26 67 118 169 59 66 72 75 149 104 47
17 91 39 99 48 12 15 11 15 -12 0 -30 -19 -140 -61 -145 -55 -3 2 7 20 20 40
20 29 23 42 16 60 -9 22 -10 21 -10 -8 -1 -33 -10 -45 -151 -214 -96 -114 -92
-115 -104 22 -7 73 -6 80 28 158 20 44 36 91 35 103 0 12 -8 -3 -18 -33 -10
-30 -27 -73 -38 -94 l-20 -39 -12 94 c-8 64 -9 109 -3 137 6 24 6 39 1 36 -5
-3 -9 -15 -10 -27 -1 -46 -10 9 -64 412 -30 228 -56 415 -57 416 -2 1 -25 19
-52 40 l-48 39 6 -49 c3 -28 19 -153 36 -280 16 -126 45 -358 65 -515 20 -157
47 -370 60 -475 40 -311 41 -325 17 -372 -23 -45 -68 -77 -122 -88 -74 -14
-72 -13 -53 -47 10 -17 35 -42 57 -56 l38 -26 -28 -8 c-66 -19 -189 28 -196
75 -2 13 -9 21 -18 20 -8 -2 -150 -30 -314 -63 l-299 -61 -31 29 c-17 17 -41
33 -54 37 -36 11 -87 60 -107 105 -10 22 -24 40 -32 40 -15 0 -55 -59 -51 -76
2 -7 39 -40 83 -75 43 -35 78 -68 78 -74 -3 -14 -412 -96 -448 -89 -48 10 -94
43 -114 83 -10 20 -23 81 -30 136 -6 55 -30 251 -51 435 -22 184 -46 391 -54
460 -9 69 -31 260 -50 425 -19 165 -62 532 -96 815 -143 1216 -160 1367 -160
1398 0 83 68 152 150 152 25 0 102 -10 173 -22 l127 -22 15 -50 c8 -27 15 -55
15 -61 0 -33 42 -43 433 -100 219 -32 400 -55 404 -52 3 4 1 29 -4 57 -8 41
-8 50 4 50 48 0 254 -45 285 -62 68 -39 72 -54 138 -583 33 -264 62 -491 65
-505 3 -14 7 -51 10 -84 5 -44 20 -86 61 -168 30 -61 57 -108 60 -106 2 3 -5
67 -15 144 -11 76 -27 195 -36 264 -9 69 -25 193 -36 275 -27 207 -44 336 -75
575 -41 317 -42 318 -349 369 -71 12 -166 29 -210 37 -93 17 -430 77 -560 100
-49 8 -135 24 -190 34 -55 10 -140 25 -190 34 -49 8 -153 27 -229 41 -146 26
-183 29 -229 15z m187 -2790 c9 -74 23 -194 32 -267 16 -128 16 -135 -5 -240
-11 -59 -22 -121 -23 -138 -6 -61 -67 296 -88 514 -14 142 -10 176 27 263 27
61 28 61 35 33 3 -17 14 -91 22 -165z m80 -669 c14 -112 23 -207 20 -212 -3
-5 -13 -13 -23 -19 -17 -9 -21 -1 -41 81 -17 69 -21 107 -17 158 6 73 27 204
32 199 2 -2 15 -95 29 -207z m45 -365 c6 -60 9 -111 8 -113 -2 -2 -19 47 -37
109 -31 107 -32 112 -14 125 26 19 30 7 43 -121z"/>
<path d="M13622 4821 c-31 -15 -47 -30 -58 -56 -14 -34 -16 -35 -65 -35 -45 0
-55 -4 -85 -34 -29 -29 -34 -41 -34 -81 0 -40 5 -51 31 -76 17 -16 35 -29 39
-29 5 0 6 -24 3 -52 -4 -44 -2 -58 17 -80 27 -35 68 -37 98 -5 22 23 30 57 13
57 -12 0 -29 51 -24 68 6 16 38 15 53 -2 16 -20 38 -10 56 26 8 16 19 26 24
23 6 -3 32 -6 59 -7 126 0 222 121 144 182 -18 14 -37 20 -55 18 -24 -4 -28
-1 -28 18 0 68 -104 104 -188 65z"/>
<path d="M11648 4725 c-32 -7 -74 -23 -93 -36 -45 -31 -100 -111 -115 -169 -7
-24 -25 -70 -41 -101 -16 -32 -31 -75 -35 -97 -8 -53 7 -61 133 -64 82 -3 103
0 125 15 l27 19 -22 30 c-12 17 -32 34 -44 39 -26 10 -57 54 -48 69 3 5 14 10
25 10 13 0 17 5 13 20 -4 16 0 20 18 20 13 -1 42 3 64 7 38 8 40 10 44 48 l3
40 13 -35 c13 -37 24 -40 78 -27 21 6 27 4 27 -8 0 -8 9 -15 20 -15 24 0 27
-27 5 -56 -8 -10 -15 -28 -15 -39 0 -12 -9 -38 -20 -60 -11 -22 -20 -40 -20
-41 0 -1 11 -5 25 -8 46 -12 101 11 126 50 24 39 22 47 -25 112 -16 21 -26 53
-31 95 -9 75 -19 105 -48 135 -47 51 -105 65 -189 47z m-4 -197 c4 -17 2 -28
-4 -28 -5 0 -10 14 -10 32 0 36 4 35 14 -4z"/>
<path d="M15074 4684 c-19 -18 -24 -31 -20 -50 6 -22 3 -24 -28 -24 -49 0 -77
-27 -83 -80 -6 -60 10 -99 47 -113 27 -10 30 -16 30 -53 0 -76 64 -128 122
-99 38 18 44 15 53 -31 10 -55 52 -144 68 -144 18 0 57 37 57 55 0 8 -4 17
-10 20 -5 3 -10 17 -10 31 0 29 33 33 62 7 17 -15 24 -15 71 -3 29 7 63 21 76
31 13 10 27 17 31 14 5 -3 11 13 15 34 11 68 -38 131 -129 166 -42 16 -45 20
-39 46 3 18 -1 38 -11 54 -13 20 -24 25 -61 25 -43 0 -44 1 -51 36 -4 21 -21
50 -41 70 -28 29 -41 34 -79 34 -35 0 -51 -6 -70 -26z"/>
<path d="M11766 4481 c-3 -4 6 -6 19 -3 14 2 25 6 25 8 0 8 -39 4 -44 -5z"/>
<path d="M11629 4453 c-12 -16 -12 -17 1 -7 8 7 24 14 35 17 19 4 19 5 -1 6
-12 0 -28 -7 -35 -16z"/>
<path d="M16160 4450 c-6 -10 -13 -47 -17 -80 l-6 -61 34 5 c37 7 50 1 67 -29
l11 -20 0 20 c0 36 -27 135 -43 161 -20 29 -32 30 -46 4z"/>
<path d="M15750 4247 c-35 -12 -35 -12 -38 -78 -3 -76 13 -104 55 -96 27 5 29
0 38 -116 7 -87 19 -124 46 -132 24 -8 56 10 64 36 7 22 -22 102 -35 94 -4 -2
-15 14 -25 36 -14 30 -16 42 -7 51 15 15 16 55 1 60 -6 2 -15 38 -21 81 -12
84 -14 86 -78 64z"/>
<path d="M16236 4225 c-6 -22 -34 -38 -68 -40 -10 0 -11 -12 -3 -55 15 -79 52
-113 76 -68 15 29 25 188 11 188 -5 0 -13 -11 -16 -25z"/>
<path d="M15510 4210 c0 -5 5 -10 10 -10 6 0 10 5 10 10 0 6 -4 10 -10 10 -5
0 -10 -4 -10 -10z"/>
<path d="M15131 3888 c-80 -86 -79 -78 -19 -144 28 -30 28 -30 8 -49 -17 -15
-20 -30 -19 -94 0 -42 6 -101 12 -131 l12 -55 55 -8 c30 -4 84 -6 119 -5 l64
3 17 60 c9 33 29 84 44 114 19 37 26 64 23 85 -3 24 3 40 26 70 l31 39 -40 34
c-21 18 -81 53 -131 78 -51 25 -101 53 -111 63 -18 18 -21 16 -91 -60z"/>
<path d="M11437 3501 c-64 -96 -120 -208 -146 -296 -29 -98 -82 -346 -75 -356
3 -5 12 -9 21 -9 8 0 78 -20 155 -45 180 -58 219 -62 335 -36 106 24 142 26
212 9 57 -13 140 0 180 28 l23 16 -29 32 c-66 71 -103 163 -143 361 -35 167
-53 229 -91 310 l-28 60 -182 0 -182 0 -50 -74z"/>
<path d="M13309 3167 c-8 -52 -9 -114 -3 -227 30 -527 4 -661 -202 -1018 -57
-98 -104 -201 -104 -227 0 -19 101 -65 143 -65 25 0 45 15 111 83 175 182 313
416 350 599 6 31 14 59 17 62 3 3 22 -63 44 -147 45 -177 89 -291 167 -437 75
-140 81 -145 151 -129 31 6 61 15 68 20 10 6 3 63 -30 266 -121 724 -175 968
-273 1232 l-20 53 -177 -7 c-113 -4 -185 -3 -203 4 l-26 10 -13 -72z"/>
<path d="M12661 2514 c-17 -32 -29 -59 -27 -61 2 -2 18 21 35 53 18 31 30 58
28 61 -3 2 -19 -22 -36 -53z"/>
<path d="M12605 2509 c-4 -6 -5 -12 -2 -15 2 -3 7 2 10 11 7 17 1 20 -8 4z"/>
<path d="M12489 2083 c14 -3 60 -18 104 -34 43 -16 86 -29 95 -29 9 0 -28 16
-83 35 -55 19 -109 34 -120 34 -16 -1 -15 -3 4 -6z"/>
<path d="M12758 2023 c6 -2 18 -2 25 0 6 3 1 5 -13 5 -14 0 -19 -2 -12 -5z"/>
<path d="M14608 1723 c-56 -61 -56 -60 50 -165 179 -178 302 -236 241 -116
-34 68 -77 116 -114 128 -44 15 -90 67 -112 130 -10 27 -23 50 -28 50 -6 0
-23 -12 -37 -27z"/>
<path d="M15795 1556 c-4 -18 -3 -48 2 -67 l9 -34 130 -3 c160 -3 314 25 314
59 0 31 -181 65 -222 43 -38 -22 -117 -17 -175 10 l-52 25 -6 -33z"/>
</g>
</svg>
